# xmcd CD database file
#
# Track frame offsets:
#	150
#	12980
#	26295
#	36970
#	48435
#	68970
#	84250
#	93247
#	110257
#	124802
#	136272
#	149220
#	162967
#	174857
#	188372
#	202175
#	219182
#	234152
#	247257
#	261132
#	282335
#	295480
#	314587
#	336640
#
# Disc length: 4647 seconds
#
# Revision: 4
# Processed by: cddbd v1.4PL0 Copyright (c) Steve Scherf et al.
# Submitted via: CDex 1.50beta10
#
DISCID=65122518
DTITLE=Al Cook - The Wite King Of Black Blues - 50th Anniversary Album
DYEAR=1998
DGENRE=Blues
TTITLE0=Hey Sweet Mama
TTITLE1=Sleepin' All By Myself
TTITLE2=Blues and Trouble
TTITLE3=Things Ain't Going On Right
TTITLE4=Lonesome Time Blues
TTITLE5=Dirt Road Blues
TTITLE6=Tell Me Baby
TTITLE7=Heavy Suitcase Blues
TTITLE8=Nice and Kind Blues
TTITLE9=I'm Goin' Away
TTITLE10=Old Chicago Blues
TTITLE11=Lonesome House Blues
TTITLE12=My Barrelhouse Mama
TTITLE13=Ramblin' Man Blues
TTITLE14=Early One Blues
TTITLE15=Old Southland Blues
TTITLE16=The Revee Blues
TTITLE17=When A Man Gets In Trouble
TTITLE18=Doggin' Mama Blues
TTITLE19=Bad Feeling Blues
TTITLE20=Hard Delta Blues
TTITLE21=Bumble Bee Blues
TTITLE22=Dream On Girl
TTITLE23=My Salty Dog Mama
EXTD=YEAR: 1998
EXTT0=
EXTT1=
EXTT2=
EXTT3=
EXTT4=
EXTT5=
EXTT6=
EXTT7=
EXTT8=
EXTT9=
EXTT10=
EXTT11=
EXTT12=
EXTT13=
EXTT14=
EXTT15=
EXTT16=
EXTT17=
EXTT18=
EXTT19=
EXTT20=
EXTT21=
EXTT22=
EXTT23=
PLAYORDER=
